<svg width="325" height="311" viewBox="0 0 325 311" fill="none" xmlns="http://www.w3.org/2000/svg">
<path d="M320.008 43.7833L3.16663 98.5L0.754127 82.1666C-2.46254 64.2 9.59996 47.8666 27.2916 44.6L281.408 1.31665C299.1 -1.95002 315.183 10.3 318.4 28.2666L320.008 43.7833Z" fill="#FBB713"/>
<path d="M292.667 310.833H35.3337C17.642 310.833 3.16699 296.133 3.16699 278.167V98.5H324.834V278.167C324.834 296.133 310.359 310.833 292.667 310.833Z" fill="#FBB713"/>
<path d="M122.184 28.2667L161.588 71.5501L193.754 65.8334L153.546 22.55L122.184 28.2667Z" fill="#F44618"/>
<path d="M58.6543 38.8834L98.0585 82.1667L130.225 76.4501L90.0168 33.9834L58.6543 38.8834Z" fill="#F44618"/>
<path d="M185.713 17.65L225.117 60.1167L256.48 55.2167L217.075 11.9333L185.713 17.65Z" fill="#F44618"/>
<path d="M248.438 7.03332L288.646 49.5L320.008 43.7833L280.604 1.31665L248.438 7.03332Z" fill="#F44618"/>
<path d="M31.3125 82.1667C37.9744 82.1667 43.375 76.6822 43.375 69.9167C43.375 63.1513 37.9744 57.6667 31.3125 57.6667C24.6506 57.6667 19.25 63.1513 19.25 69.9167C19.25 76.6822 24.6506 82.1667 31.3125 82.1667Z" fill="#F44618"/>
<path d="M292.667 98.5L260.5 147.5H292.667L324.833 98.5H292.667Z" fill="#F44618"/>
<path d="M228.334 98.5L196.167 147.5H228.334L260.5 98.5H228.334Z" fill="#F44618"/>
<path d="M164.001 98.5L131.834 147.5H164.001L196.167 98.5H164.001Z" fill="#F44618"/>
<path d="M99.6667 98.5L67.5 147.5H99.6667L131.833 98.5H99.6667Z" fill="#F44618"/>
<path d="M35.3337 98.5L3.16699 147.5H35.3337L67.5003 98.5H35.3337Z" fill="#F44618"/>
</svg>
