<svg width="142" height="56" viewBox="0 0 142 56" fill="none" xmlns="http://www.w3.org/2000/svg">
<path d="M1 1.55017V23.5362H54.8462L60.5 54.7422H89.4941L141 23.5362V1.55017H1Z" fill="black" stroke="black"/>
<path d="M13.706 17.6409L9.864 8.4949H12.601L15.797 16.3659H14.437L17.752 8.4949H20.302L16.443 17.6409H13.706ZM38.4241 17.7769C37.3815 17.7769 36.4635 17.5729 35.6701 17.1649C34.8881 16.7569 34.2818 16.2016 33.8511 15.4989C33.4205 14.7849 33.2051 13.9746 33.2051 13.0679C33.2051 12.1499 33.4148 11.3396 33.8341 10.6369C34.2648 9.9229 34.8485 9.36757 35.5851 8.9709C36.3218 8.5629 37.1548 8.3589 38.0841 8.3589C38.9795 8.3589 39.7841 8.55157 40.4981 8.9369C41.2235 9.3109 41.7958 9.8549 42.2151 10.5689C42.6345 11.2716 42.8441 12.1159 42.8441 13.1019C42.8441 13.2039 42.8385 13.3229 42.8271 13.4589C42.8158 13.5836 42.8045 13.7026 42.7931 13.8159H35.3641V12.2689H41.3991L40.3791 12.7279C40.3791 12.2519 40.2828 11.8382 40.0901 11.4869C39.8975 11.1356 39.6311 10.8636 39.2911 10.6709C38.9511 10.4669 38.5545 10.3649 38.1011 10.3649C37.6478 10.3649 37.2455 10.4669 36.8941 10.6709C36.5541 10.8636 36.2878 11.1412 36.0951 11.5039C35.9025 11.8552 35.8061 12.2746 35.8061 12.7619V13.1699C35.8061 13.6686 35.9138 14.1106 36.1291 14.4959C36.3558 14.8699 36.6675 15.1589 37.0641 15.3629C37.4721 15.5556 37.9481 15.6519 38.4921 15.6519C38.9795 15.6519 39.4045 15.5782 39.7671 15.4309C40.1411 15.2836 40.4811 15.0626 40.7871 14.7679L42.1981 16.2979C41.7788 16.7739 41.2518 17.1422 40.6171 17.4029C39.9825 17.6522 39.2515 17.7769 38.4241 17.7769ZM57.3597 17.6409V8.4949H59.8927V11.0789L59.5357 10.3309C59.8077 9.6849 60.2441 9.19757 60.8447 8.8689C61.4454 8.5289 62.1764 8.3589 63.0377 8.3589V10.8069C62.9244 10.7956 62.8224 10.7899 62.7317 10.7899C62.6411 10.7786 62.5447 10.7729 62.4427 10.7729C61.7174 10.7729 61.1281 10.9826 60.6747 11.4019C60.2327 11.8099 60.0117 12.4502 60.0117 13.3229V17.6409H57.3597ZM81.4201 17.7769C80.3434 17.7769 79.5047 17.5049 78.9041 16.9609C78.3034 16.4056 78.0031 15.5839 78.0031 14.4959V6.4719H80.6551V14.4619C80.6551 14.8472 80.7571 15.1476 80.9611 15.3629C81.1651 15.5669 81.4427 15.6689 81.7941 15.6689C82.2134 15.6689 82.5704 15.5556 82.8651 15.3289L83.5791 17.1989C83.3071 17.3916 82.9784 17.5389 82.5931 17.6409C82.2191 17.7316 81.8281 17.7769 81.4201 17.7769ZM76.5921 10.7389V8.6989H82.9331V10.7389H76.5921ZM102.075 17.7769C101.032 17.7769 100.114 17.5729 99.3205 17.1649C98.5385 16.7569 97.9322 16.2016 97.5015 15.4989C97.0709 14.7849 96.8555 13.9746 96.8555 13.0679C96.8555 12.1499 97.0652 11.3396 97.4845 10.6369C97.9152 9.9229 98.4989 9.36757 99.2355 8.9709C99.9722 8.5629 100.805 8.3589 101.735 8.3589C102.63 8.3589 103.435 8.55157 104.149 8.9369C104.874 9.3109 105.446 9.8549 105.866 10.5689C106.285 11.2716 106.495 12.1159 106.495 13.1019C106.495 13.2039 106.489 13.3229 106.478 13.4589C106.466 13.5836 106.455 13.7026 106.444 13.8159H99.0145V12.2689H105.05L104.03 12.7279C104.03 12.2519 103.933 11.8382 103.741 11.4869C103.548 11.1356 103.282 10.8636 102.942 10.6709C102.602 10.4669 102.205 10.3649 101.752 10.3649C101.298 10.3649 100.896 10.4669 100.545 10.6709C100.205 10.8636 99.9382 11.1412 99.7455 11.5039C99.5529 11.8552 99.4565 12.2746 99.4565 12.7619V13.1699C99.4565 13.6686 99.5642 14.1106 99.7795 14.4959C100.006 14.8699 100.318 15.1589 100.715 15.3629C101.123 15.5556 101.599 15.6519 102.143 15.6519C102.63 15.6519 103.055 15.5782 103.418 15.4309C103.792 15.2836 104.132 15.0626 104.438 14.7679L105.849 16.2979C105.429 16.7739 104.902 17.1422 104.268 17.4029C103.633 17.6522 102.902 17.7769 102.075 17.7769ZM126.416 17.7769C125.645 17.7769 124.971 17.6069 124.393 17.2669C123.815 16.9269 123.362 16.4112 123.033 15.7199C122.716 15.0172 122.557 14.1332 122.557 13.0679C122.557 11.9912 122.71 11.1072 123.016 10.4159C123.322 9.72457 123.764 9.2089 124.342 8.8689C124.92 8.5289 125.611 8.3589 126.416 8.3589C127.277 8.3589 128.048 8.55723 128.728 8.9539C129.419 9.33923 129.963 9.88323 130.36 10.5859C130.768 11.2886 130.972 12.1159 130.972 13.0679C130.972 14.0312 130.768 14.8642 130.36 15.5669C129.963 16.2696 129.419 16.8136 128.728 17.1989C128.048 17.5842 127.277 17.7769 126.416 17.7769ZM121.01 20.9389V8.4949H123.543V10.3649L123.492 13.0849L123.662 15.7879V20.9389H121.01ZM125.957 15.6009C126.399 15.6009 126.79 15.4989 127.13 15.2949C127.481 15.0909 127.759 14.8019 127.963 14.4279C128.178 14.0426 128.286 13.5892 128.286 13.0679C128.286 12.5352 128.178 12.0819 127.963 11.7079C127.759 11.3339 127.481 11.0449 127.13 10.8409C126.79 10.6369 126.399 10.5349 125.957 10.5349C125.515 10.5349 125.118 10.6369 124.767 10.8409C124.416 11.0449 124.138 11.3339 123.934 11.7079C123.73 12.0819 123.628 12.5352 123.628 13.0679C123.628 13.5892 123.73 14.0426 123.934 14.4279C124.138 14.8019 124.416 15.0909 124.767 15.2949C125.118 15.4989 125.515 15.6009 125.957 15.6009Z" fill="white"/>
</svg>
