<svg width="330" height="310" viewBox="0 0 330 310" fill="none" xmlns="http://www.w3.org/2000/svg">
<path d="M251.626 116.248H173.251V150.154C173.251 174.191 156.596 193.748 136.126 193.748C115.656 193.748 99.001 174.191 99.001 150.154V76.5294L65.5369 100.143C55.5854 107.106 49.501 119.76 49.501 133.322V161.961L8.25102 189.934C0.361956 195.262 -2.37086 207.129 2.21821 216.393L43.4682 300.31C48.0057 309.574 58.1119 312.723 66.001 307.394L119.317 271.248H189.751C207.953 271.248 222.751 253.871 222.751 232.498H231.001C240.128 232.498 247.501 223.84 247.501 213.123V174.373H251.626C258.484 174.373 264.001 167.895 264.001 159.842V130.779C264.001 122.727 258.484 116.248 251.626 116.248ZM327.784 93.6036L286.534 9.68575C281.996 0.422083 271.89 -2.72635 264.001 2.60177L210.685 38.7482H157.988C151.801 38.7482 145.768 40.8068 140.509 44.6213L123.235 57.2755C118.389 60.7873 115.501 67.0236 115.501 73.6837V150.154C115.501 163.535 124.731 174.373 136.126 174.373C147.521 174.373 156.751 163.535 156.751 150.154V96.8732H251.626C267.559 96.8732 280.501 112.07 280.501 130.779V148.035L321.751 120.063C329.64 114.674 332.321 102.867 327.784 93.6036Z" fill="#FBB713"/>
</svg>
