<svg width="53" height="28" viewBox="0 0 53 28" fill="none" xmlns="http://www.w3.org/2000/svg">
<path d="M1 9.58929V27H52V2L43.5 9.58929H1Z" fill="#FBB713" stroke="#FBB713"/>
<path d="M10.51 21.072C10.102 21.072 9.745 20.982 9.439 20.802C9.133 20.622 8.893 20.349 8.719 19.983C8.551 19.611 8.467 19.143 8.467 18.579C8.467 18.009 8.548 17.541 8.71 17.175C8.872 16.809 9.106 16.536 9.412 16.356C9.718 16.176 10.084 16.086 10.51 16.086C10.966 16.086 11.374 16.191 11.734 16.401C12.1 16.605 12.388 16.893 12.598 17.265C12.814 17.637 12.922 18.075 12.922 18.579C12.922 19.089 12.814 19.53 12.598 19.902C12.388 20.274 12.1 20.562 11.734 20.766C11.374 20.97 10.966 21.072 10.51 21.072ZM7.648 22.746V16.158H8.989V17.148L8.962 18.588L9.052 20.019V22.746H7.648ZM10.267 19.92C10.501 19.92 10.708 19.866 10.888 19.758C11.074 19.65 11.221 19.497 11.329 19.299C11.443 19.095 11.5 18.855 11.5 18.579C11.5 18.297 11.443 18.057 11.329 17.859C11.221 17.661 11.074 17.508 10.888 17.4C10.708 17.292 10.501 17.238 10.267 17.238C10.033 17.238 9.823 17.292 9.637 17.4C9.451 17.508 9.304 17.661 9.196 17.859C9.088 18.057 9.034 18.297 9.034 18.579C9.034 18.855 9.088 19.095 9.196 19.299C9.304 19.497 9.451 19.65 9.637 19.758C9.823 19.866 10.033 19.92 10.267 19.92ZM13.8619 21V16.158H15.2029V17.526L15.0139 17.13C15.1579 16.788 15.3889 16.53 15.7069 16.356C16.0249 16.176 16.4119 16.086 16.8679 16.086V17.382C16.8079 17.376 16.7539 17.373 16.7059 17.373C16.6579 17.367 16.6069 17.364 16.5529 17.364C16.1689 17.364 15.8569 17.475 15.6169 17.697C15.3829 17.913 15.2659 18.252 15.2659 18.714V21H13.8619ZM19.9715 21.072C19.4555 21.072 18.9965 20.964 18.5945 20.748C18.1985 20.532 17.8835 20.238 17.6495 19.866C17.4215 19.488 17.3075 19.059 17.3075 18.579C17.3075 18.093 17.4215 17.664 17.6495 17.292C17.8835 16.914 18.1985 16.62 18.5945 16.41C18.9965 16.194 19.4555 16.086 19.9715 16.086C20.4815 16.086 20.9375 16.194 21.3395 16.41C21.7415 16.62 22.0565 16.911 22.2845 17.283C22.5125 17.655 22.6265 18.087 22.6265 18.579C22.6265 19.059 22.5125 19.488 22.2845 19.866C22.0565 20.238 21.7415 20.532 21.3395 20.748C20.9375 20.964 20.4815 21.072 19.9715 21.072ZM19.9715 19.92C20.2055 19.92 20.4155 19.866 20.6015 19.758C20.7875 19.65 20.9345 19.497 21.0425 19.299C21.1505 19.095 21.2045 18.855 21.2045 18.579C21.2045 18.297 21.1505 18.057 21.0425 17.859C20.9345 17.661 20.7875 17.508 20.6015 17.4C20.4155 17.292 20.2055 17.238 19.9715 17.238C19.7375 17.238 19.5275 17.292 19.3415 17.4C19.1555 17.508 19.0055 17.661 18.8915 17.859C18.7835 18.057 18.7295 18.297 18.7295 18.579C18.7295 18.855 18.7835 19.095 18.8915 19.299C19.0055 19.497 19.1555 19.65 19.3415 19.758C19.5275 19.866 19.7375 19.92 19.9715 19.92ZM23.205 22.818C22.989 22.818 22.782 22.794 22.584 22.746C22.386 22.704 22.218 22.638 22.08 22.548L22.458 21.531C22.62 21.645 22.818 21.702 23.052 21.702C23.226 21.702 23.364 21.642 23.466 21.522C23.574 21.408 23.628 21.234 23.628 21V16.158H25.032V20.991C25.032 21.549 24.873 21.993 24.555 22.323C24.237 22.653 23.787 22.818 23.205 22.818ZM24.33 15.483C24.072 15.483 23.862 15.408 23.7 15.258C23.538 15.108 23.457 14.922 23.457 14.7C23.457 14.478 23.538 14.292 23.7 14.142C23.862 13.992 24.072 13.917 24.33 13.917C24.588 13.917 24.798 13.989 24.96 14.133C25.122 14.271 25.203 14.451 25.203 14.673C25.203 14.907 25.122 15.102 24.96 15.258C24.804 15.408 24.594 15.483 24.33 15.483ZM28.7278 21.072C28.1758 21.072 27.6898 20.964 27.2698 20.748C26.8558 20.532 26.5348 20.238 26.3068 19.866C26.0788 19.488 25.9648 19.059 25.9648 18.579C25.9648 18.093 26.0758 17.664 26.2978 17.292C26.5258 16.914 26.8348 16.62 27.2248 16.41C27.6148 16.194 28.0558 16.086 28.5478 16.086C29.0218 16.086 29.4478 16.188 29.8258 16.392C30.2098 16.59 30.5128 16.878 30.7348 17.256C30.9568 17.628 31.0678 18.075 31.0678 18.597C31.0678 18.651 31.0648 18.714 31.0588 18.786C31.0528 18.852 31.0468 18.915 31.0408 18.975H27.1078V18.156H30.3028L29.7628 18.399C29.7628 18.147 29.7118 17.928 29.6098 17.742C29.5078 17.556 29.3668 17.412 29.1868 17.31C29.0068 17.202 28.7968 17.148 28.5568 17.148C28.3168 17.148 28.1038 17.202 27.9178 17.31C27.7378 17.412 27.5968 17.559 27.4948 17.751C27.3928 17.937 27.3418 18.159 27.3418 18.417V18.633C27.3418 18.897 27.3988 19.131 27.5128 19.335C27.6328 19.533 27.7978 19.686 28.0078 19.794C28.2238 19.896 28.4758 19.947 28.7638 19.947C29.0218 19.947 29.2468 19.908 29.4388 19.83C29.6368 19.752 29.8168 19.635 29.9788 19.479L30.7258 20.289C30.5038 20.541 30.2248 20.736 29.8888 20.874C29.5528 21.006 29.1658 21.072 28.7278 21.072ZM33.9825 21.072C33.4125 21.072 32.9685 20.928 32.6505 20.64C32.3325 20.346 32.1735 19.911 32.1735 19.335V15.087H33.5775V19.317C33.5775 19.521 33.6315 19.68 33.7395 19.794C33.8475 19.902 33.9945 19.956 34.1805 19.956C34.4025 19.956 34.5915 19.896 34.7475 19.776L35.1255 20.766C34.9815 20.868 34.8075 20.946 34.6035 21C34.4055 21.048 34.1985 21.072 33.9825 21.072ZM31.4265 17.346V16.266H34.7835V17.346H31.4265ZM38.0682 21.072C37.5522 21.072 37.0932 20.964 36.6912 20.748C36.2952 20.532 35.9802 20.238 35.7462 19.866C35.5182 19.488 35.4042 19.059 35.4042 18.579C35.4042 18.093 35.5182 17.664 35.7462 17.292C35.9802 16.914 36.2952 16.62 36.6912 16.41C37.0932 16.194 37.5522 16.086 38.0682 16.086C38.5782 16.086 39.0342 16.194 39.4362 16.41C39.8382 16.62 40.1532 16.911 40.3812 17.283C40.6092 17.655 40.7232 18.087 40.7232 18.579C40.7232 19.059 40.6092 19.488 40.3812 19.866C40.1532 20.238 39.8382 20.532 39.4362 20.748C39.0342 20.964 38.5782 21.072 38.0682 21.072ZM38.0682 19.92C38.3022 19.92 38.5122 19.866 38.6982 19.758C38.8842 19.65 39.0312 19.497 39.1392 19.299C39.2472 19.095 39.3012 18.855 39.3012 18.579C39.3012 18.297 39.2472 18.057 39.1392 17.859C39.0312 17.661 38.8842 17.508 38.6982 17.4C38.5122 17.292 38.3022 17.238 38.0682 17.238C37.8342 17.238 37.6242 17.292 37.4382 17.4C37.2522 17.508 37.1022 17.661 36.9882 17.859C36.8802 18.057 36.8262 18.297 36.8262 18.579C36.8262 18.855 36.8802 19.095 36.9882 19.299C37.1022 19.497 37.2522 19.65 37.4382 19.758C37.6242 19.866 37.8342 19.92 38.0682 19.92ZM43.2907 21.072C42.8767 21.072 42.4777 21.024 42.0937 20.928C41.7157 20.826 41.4157 20.7 41.1937 20.55L41.6617 19.542C41.8837 19.68 42.1447 19.794 42.4447 19.884C42.7507 19.968 43.0507 20.01 43.3447 20.01C43.6687 20.01 43.8967 19.971 44.0287 19.893C44.1667 19.815 44.2357 19.707 44.2357 19.569C44.2357 19.455 44.1817 19.371 44.0737 19.317C43.9717 19.257 43.8337 19.212 43.6597 19.182C43.4857 19.152 43.2937 19.122 43.0837 19.092C42.8797 19.062 42.6727 19.023 42.4627 18.975C42.2527 18.921 42.0607 18.843 41.8867 18.741C41.7127 18.639 41.5717 18.501 41.4637 18.327C41.3617 18.153 41.3107 17.928 41.3107 17.652C41.3107 17.346 41.3977 17.076 41.5717 16.842C41.7517 16.608 42.0097 16.425 42.3457 16.293C42.6817 16.155 43.0837 16.086 43.5517 16.086C43.8817 16.086 44.2177 16.122 44.5597 16.194C44.9017 16.266 45.1867 16.371 45.4147 16.509L44.9467 17.508C44.7127 17.37 44.4757 17.277 44.2357 17.229C44.0017 17.175 43.7737 17.148 43.5517 17.148C43.2397 17.148 43.0117 17.19 42.8677 17.274C42.7237 17.358 42.6517 17.466 42.6517 17.598C42.6517 17.718 42.7027 17.808 42.8047 17.868C42.9127 17.928 43.0537 17.976 43.2277 18.012C43.4017 18.048 43.5907 18.081 43.7947 18.111C44.0047 18.135 44.2147 18.174 44.4247 18.228C44.6347 18.282 44.8237 18.36 44.9917 18.462C45.1657 18.558 45.3067 18.693 45.4147 18.867C45.5227 19.035 45.5767 19.257 45.5767 19.533C45.5767 19.833 45.4867 20.1 45.3067 20.334C45.1267 20.562 44.8657 20.742 44.5237 20.874C44.1877 21.006 43.7767 21.072 43.2907 21.072Z" fill="black"/>
</svg>
