<svg width="400" height="391" viewBox="0 0 400 391" fill="none" xmlns="http://www.w3.org/2000/svg">
<path d="M128.341 327.264H91.165C83.9965 327.264 78.1851 331.404 78.1851 336.51C78.1851 341.618 83.9965 345.758 91.165 345.758H92.8941C100.063 345.758 105.874 349.9 105.874 355.006C105.874 360.113 100.063 364.253 92.8941 364.253H12.9781C5.80956 364.253 0 368.394 0 373.503C0 378.609 5.80956 382.749 12.9781 382.749H109.017H305.323C312.492 382.749 318.301 378.609 318.301 373.503C318.301 368.394 312.492 364.253 305.323 364.253H283.144C275.975 364.253 270.164 360.113 270.164 355.006C270.164 349.9 275.975 345.758 283.144 345.758H370.256C377.423 345.758 383.234 341.618 383.234 336.51C383.234 331.404 377.423 327.264 370.256 327.264H363.754H128.341Z" fill="#FFC017"/>
<path d="M356.866 383.581C351.817 383.581 347.723 380.652 347.723 377.04C347.723 373.427 351.817 370.5 356.866 370.5H384.883C389.932 370.5 394.025 373.427 394.025 377.04C394.025 380.652 389.932 383.581 384.883 383.581H356.866Z" fill="#FFC017"/>
<path d="M314.866 19.1155L75.123 100.133C73.9224 100.538 73.2834 101.82 73.6996 102.995L78.5406 116.682C78.9549 117.857 80.2659 118.48 81.4684 118.073L321.211 37.0556C322.413 36.6507 323.05 35.3691 322.634 34.1955L317.793 20.5069C317.379 19.3333 316.068 18.7087 314.866 19.1155Z" fill="#F44618"/>
<path d="M333.616 343.233H318.8C317.53 343.233 316.499 342.225 316.499 340.985V299.928C316.499 298.686 317.53 297.678 318.8 297.678H333.616C334.889 297.678 335.918 298.686 335.918 299.928V340.985C335.918 342.225 334.889 343.233 333.616 343.233Z" fill="#F44618"/>
<path d="M131.661 343.233H116.845C115.574 343.233 114.543 342.225 114.543 340.985V299.928C114.543 298.686 115.574 297.678 116.845 297.678H131.661C132.931 297.678 133.962 298.686 133.962 299.928V340.985C133.962 342.225 132.931 343.233 131.661 343.233Z" fill="#F44618"/>
<path d="M385.039 310.963H65.4225C57.1603 310.963 50.4613 304.417 50.4613 296.341V101.611C50.4613 93.5328 57.1603 86.9863 65.4225 86.9863H385.039C393.301 86.9863 400 93.5328 400 101.611V296.341C400 304.417 393.301 310.963 385.039 310.963Z" fill="#FFC017"/>
<path opacity="0.35" d="M362.134 89.0005C372.869 100.059 376.697 117.042 376.697 133.49V234.091C376.697 268.161 348.441 295.779 313.586 295.779L90.2701 302.086C82.3521 302.086 72.6812 298.441 65.6968 295.838C77.1981 307.687 87.578 310.963 113.573 310.963H343.341C378.196 310.963 400 289.65 400 255.581V142.369C400 116.038 385.891 97.8527 362.134 89.0005Z" fill="black"/>
<path d="M338.428 26.8373C338.428 37.5596 329.534 46.2516 318.563 46.2516C307.592 46.2516 298.698 37.5596 298.698 26.8373C298.698 16.1132 307.592 7.41943 318.563 7.41943C329.534 7.41943 338.428 16.1132 338.428 26.8373Z" fill="#F44618"/>
<path d="M362.134 198.976C362.134 236.715 330.834 267.307 292.226 267.307C253.617 267.307 222.318 236.715 222.318 198.976C222.318 161.236 253.617 130.642 292.226 130.642C330.834 130.642 362.134 161.236 362.134 198.976Z" fill="#F44618"/>
<path d="M327.179 198.976C327.179 217.845 311.531 233.141 292.226 233.141C272.921 233.141 257.272 217.845 257.272 198.976C257.272 180.107 272.921 164.809 292.226 164.809C311.531 164.809 327.179 180.107 327.179 198.976Z" fill="#FBB713"/>
<path opacity="0.35" d="M320.454 178.977C324.638 184.609 327.179 191.481 327.179 198.976C327.179 217.845 311.531 233.141 292.226 233.141C284.558 233.141 277.53 230.657 271.766 226.567C278.119 235.115 288.355 240.733 299.993 240.733C319.298 240.733 334.948 225.439 334.948 206.566C334.948 195.192 329.201 185.185 320.454 178.977Z" fill="black"/>
<path d="M204.712 181.892H90.399C89.2555 181.892 88.3293 180.985 88.3293 179.866V166.834C88.3293 165.716 89.2555 164.809 90.399 164.809H204.712C205.856 164.809 206.784 165.716 206.784 166.834V179.866C206.784 180.985 205.856 181.892 204.712 181.892Z" fill="#F44618"/>
<path d="M204.712 257.818H90.399C89.2555 257.818 88.3293 256.911 88.3293 255.791V242.76C88.3293 241.64 89.2555 240.733 90.399 240.733H204.712C205.856 240.733 206.784 241.64 206.784 242.76V255.791C206.784 256.911 205.856 257.818 204.712 257.818Z" fill="#F44618"/>
<path d="M204.712 219.855H90.399C89.2555 219.855 88.3293 218.948 88.3293 217.83V204.797C88.3293 203.677 89.2555 202.774 90.399 202.774H204.712C205.856 202.774 206.784 203.677 206.784 204.797V217.83C206.784 218.948 205.856 219.855 204.712 219.855Z" fill="#F44618"/>
</svg>
