<svg width="531" height="382" viewBox="0 0 531 382" fill="none" xmlns="http://www.w3.org/2000/svg">
<path d="M188.879 0H459.725V382H138.986L222.735 259.972L138.986 159.167L188.879 0Z" fill="#1B1B1B"/>
<path d="M266.8 111.673C259.15 111.673 252.415 110.173 246.594 107.174C240.856 104.175 236.408 100.094 233.248 94.9288C230.088 89.6808 228.508 83.7248 228.508 77.0605C228.508 70.313 230.046 64.357 233.123 59.1922C236.283 53.9441 240.565 49.8624 245.97 46.9467C251.375 43.9479 257.487 42.4484 264.306 42.4484C270.875 42.4484 276.779 43.8647 282.018 46.6968C287.339 49.4458 291.539 53.4443 294.616 58.6924C297.692 63.8572 299.231 70.0631 299.231 77.3104C299.231 78.0601 299.189 78.9348 299.106 79.9344C299.023 80.8508 298.939 81.7255 298.856 82.5584H244.349V71.1877H288.628L281.145 74.5614C281.145 71.0627 280.438 68.0221 279.024 65.4398C277.61 62.8576 275.656 60.8583 273.162 59.4421C270.667 57.9426 267.757 57.1929 264.43 57.1929C261.104 57.1929 258.152 57.9426 255.575 59.4421C253.08 60.8583 251.126 62.899 249.712 65.5648C248.298 68.147 247.592 71.2294 247.592 74.8113V77.8102C247.592 81.4756 248.382 84.7244 249.962 87.5566C251.625 90.3055 253.911 92.4297 256.822 93.9292C259.815 95.3454 263.308 96.0534 267.299 96.0534C270.875 96.0534 273.993 95.5118 276.654 94.429C279.398 93.3462 281.893 91.7218 284.138 89.5558L294.491 100.802C291.414 104.3 287.548 107.007 282.891 108.924C278.234 110.756 272.871 111.673 266.8 111.673Z" fill="white"/>
<path d="M531 185.645C531 230.994 493.505 267.757 447.251 267.757C400.997 267.757 363.503 230.994 363.503 185.645C363.503 140.296 400.997 103.533 447.251 103.533C493.505 103.533 531 140.296 531 185.645Z" fill="#1B1B1B"/>
<path d="M112.838 231.835L22.3447 185.645L14.2552 201.55L104.748 247.74L112.838 231.835Z" fill="#F44618"/>
<path d="M99.7852 264.187H0V282.037H99.7852V264.187Z" fill="#F44618"/>
<path d="M104.748 299.888L14.2549 346.078L22.3444 361.983L112.837 315.793L104.748 299.888Z" fill="#F44618"/>
</svg>
